<svg width="3089" height="840" viewBox="0 0 3089 840" fill="none" xmlns="http://www.w3.org/2000/svg">
<path d="M20 420C20 340.888 43.4596 263.552 87.4122 197.772C131.365 131.992 193.836 80.7234 266.927 50.4484C340.017 20.1733 420.444 12.252 498.036 27.6861C575.629 43.1202 646.902 81.2165 702.843 137.157" stroke="#206847" stroke-width="40"/>
<path d="M420 820C526.087 820 627.828 777.857 702.843 702.843" stroke="#206847" stroke-width="40"/>
<path d="M95 420C95 484.279 114.061 547.115 149.772 600.561C185.484 654.006 236.242 695.663 295.628 720.261C355.014 744.86 420.361 751.296 483.404 738.755C546.448 726.215 604.358 695.262 649.81 649.81" stroke="#206847" stroke-width="40"/>
<path d="M420 670C486.304 670 549.893 643.661 596.777 596.777" stroke="#206847" stroke-width="40"/>
<path d="M245 420C245 454.612 255.264 488.446 274.493 517.225C293.722 546.004 321.053 568.434 353.03 581.679C385.007 594.924 420.194 598.39 454.141 591.638C488.087 584.885 519.269 568.218 543.744 543.744" stroke="#206847" stroke-width="40"/>
<path d="M170 420C170 370.555 184.662 322.22 212.133 281.108C239.603 239.995 278.648 207.952 324.329 189.03C370.011 170.108 420.277 165.158 468.773 174.804C517.268 184.45 561.814 208.26 596.777 243.223" stroke="#206847" stroke-width="40"/>
<path d="M420 245C466.413 245 510.925 263.438 543.744 296.256" stroke="#206847" stroke-width="40"/>
<path d="M420 95.0002C506.195 95.0002 588.86 129.241 649.81 190.19" stroke="#206847" stroke-width="40"/>
<path d="M769.5 497.5C756.667 497.5 744.833 495.334 734 491C723.333 486.5 714 480.25 706 472.25C698.167 464.084 692.083 454.5 687.75 443.5C683.417 432.334 681.25 420.167 681.25 407C681.25 394.167 683.5 382.334 688 371.5C692.5 360.5 698.833 351 707 343C715.167 334.834 724.75 328.5 735.75 324C746.75 319.5 758.667 317.25 771.5 317.25C779.833 317.25 788 318.417 796 320.75C804.167 322.917 811.583 326.167 818.25 330.5C825.083 334.834 830.917 340 835.75 346L812.25 372C808.25 368 804.083 364.584 799.75 361.75C795.583 358.75 791.083 356.5 786.25 355C781.583 353.334 776.583 352.5 771.25 352.5C764.083 352.5 757.333 353.834 751 356.5C744.833 359.167 739.417 362.917 734.75 367.75C730.083 372.417 726.333 378.167 723.5 385C720.833 391.667 719.5 399.084 719.5 407.25C719.5 415.584 720.833 423.167 723.5 430C726.167 436.667 729.917 442.417 734.75 447.25C739.583 451.917 745.333 455.584 752 458.25C758.833 460.75 766.333 462 774.5 462C779.833 462 785 461.25 790 459.75C795 458.25 799.583 456.167 803.75 453.5C808.083 450.834 811.917 447.75 815.25 444.25L833.5 473.5C829.5 478 824.083 482.084 817.25 485.75C810.583 489.417 803.083 492.334 794.75 494.5C786.417 496.5 778 497.5 769.5 497.5ZM910.863 495V407.75L912.613 420L841.863 320H885.113L939.113 397.5L922.113 396.75L970.863 320H1012.61L944.863 422.75L948.613 405.75V495H910.863ZM1034.79 495V320H1110.79C1122.46 320 1132.29 321.75 1140.29 325.25C1148.46 328.584 1154.62 333.5 1158.79 340C1162.96 346.5 1165.04 354.25 1165.04 363.25C1165.04 373.25 1162.54 381.584 1157.54 388.25C1152.54 394.917 1145.37 399.5 1136.04 402L1135.79 397C1143.46 398.834 1150.21 401.834 1156.04 406C1161.87 410.167 1166.37 415.334 1169.54 421.5C1172.71 427.667 1174.29 434.667 1174.29 442.5C1174.29 451.167 1172.87 458.834 1170.04 465.5C1167.21 472 1163.04 477.417 1157.54 481.75C1152.04 486.084 1145.54 489.417 1138.04 491.75C1130.71 493.917 1122.46 495 1113.29 495H1034.79ZM1070.79 462.5H1111.79C1117.12 462.5 1121.62 461.75 1125.29 460.25C1129.12 458.584 1132.04 456.084 1134.04 452.75C1136.04 449.417 1137.04 445.5 1137.04 441C1137.04 436.667 1135.96 433 1133.79 430C1131.62 427 1128.54 424.75 1124.54 423.25C1120.71 421.584 1116.04 420.75 1110.54 420.75H1070.79V462.5ZM1070.79 391H1106.29C1110.79 391 1114.71 390.167 1118.04 388.5C1121.37 386.834 1123.87 384.584 1125.54 381.75C1127.37 378.917 1128.29 375.584 1128.29 371.75C1128.29 365.584 1126.29 360.834 1122.29 357.5C1118.29 354.167 1112.29 352.5 1104.29 352.5H1070.79V391ZM1208.38 495V320H1326.63V353H1244.88V462H1328.38V495H1208.38ZM1225.88 421.75V389.75H1314.63V421.75H1225.88ZM1367.07 495V320H1444.57C1455.4 320 1465.23 322.5 1474.07 327.5C1482.9 332.334 1489.82 338.917 1494.82 347.25C1499.98 355.584 1502.57 365.084 1502.57 375.75C1502.57 386.25 1499.98 395.834 1494.82 404.5C1489.82 413 1482.9 419.75 1474.07 424.75C1465.23 429.75 1455.4 432.25 1444.57 432.25H1403.32V495H1367.07ZM1466.32 495L1421.82 416L1460.32 409.75L1509.82 495.25L1466.32 495ZM1403.32 401.75H1442.82C1447.32 401.75 1451.23 400.75 1454.57 398.75C1458.07 396.584 1460.73 393.667 1462.57 390C1464.4 386.167 1465.32 381.917 1465.32 377.25C1465.32 372.25 1464.23 367.917 1462.07 364.25C1459.9 360.584 1456.73 357.75 1452.57 355.75C1448.4 353.584 1443.57 352.5 1438.07 352.5H1403.32V401.75ZM1618.78 495V320H1652.28L1749.03 450.75H1742.03C1741.36 445.584 1740.78 440.584 1740.28 435.75C1739.78 430.75 1739.28 425.75 1738.78 420.75C1738.44 415.584 1738.11 410.334 1737.78 405C1737.61 399.5 1737.44 393.75 1737.28 387.75C1737.11 381.584 1737.03 374.917 1737.03 367.75V320H1773.78V495H1739.78L1641.03 363L1650.53 363.25C1651.36 371.917 1652.03 379.334 1652.53 385.5C1653.19 391.5 1653.69 396.75 1654.03 401.25C1654.36 405.75 1654.61 409.667 1654.78 413C1655.11 416.334 1655.28 419.5 1655.28 422.5C1655.44 425.5 1655.53 428.667 1655.53 432V495H1618.78ZM1819.21 495V320H1937.46V353H1855.71V462H1939.21V495H1819.21ZM1836.71 421.75V389.75H1925.46V421.75H1836.71ZM2014.41 495V353.75H1963.41V320H2104.41V353.75H2051.91V495H2014.41ZM2171.07 495L2117.82 320H2156.32L2184.82 417.75C2185.99 421.25 2186.99 425.084 2187.82 429.25C2188.82 433.25 2189.57 437.167 2190.07 441C2190.74 444.667 2191.24 448.167 2191.57 451.5C2192.07 454.667 2192.49 457.334 2192.82 459.5L2186.82 459.25C2188.32 452.25 2189.57 446.417 2190.57 441.75C2191.57 436.917 2192.49 432.667 2193.32 429C2194.32 425.167 2195.49 421.334 2196.82 417.5L2224.32 345.25H2255.32L2282.32 417.5C2284.32 422.5 2285.9 427.334 2287.07 432C2288.4 436.5 2289.49 440.917 2290.32 445.25C2291.15 449.417 2291.99 453.667 2292.82 458L2287.32 459C2287.82 455.5 2288.15 452.5 2288.32 450C2288.65 447.334 2288.9 444.917 2289.07 442.75C2289.4 440.584 2289.74 438.417 2290.07 436.25C2290.4 433.917 2290.9 431.25 2291.57 428.25C2292.24 425.084 2293.24 421.417 2294.57 417.25L2322.82 320H2360.82L2307.07 495H2279.32L2236.07 391.5L2240.07 392L2199.82 495H2171.07ZM2462.63 497.5C2449.8 497.5 2437.97 495.25 2427.13 490.75C2416.3 486.25 2406.8 480 2398.63 472C2390.63 463.834 2384.47 454.25 2380.13 443.25C2375.8 432.084 2373.63 420 2373.63 407C2373.63 393.834 2375.8 381.834 2380.13 371C2384.47 360 2390.63 350.417 2398.63 342.25C2406.8 334.084 2416.3 327.75 2427.13 323.25C2437.97 318.75 2449.8 316.5 2462.63 316.5C2475.63 316.5 2487.47 318.75 2498.13 323.25C2508.97 327.75 2518.38 334.084 2526.38 342.25C2534.55 350.417 2540.8 360 2545.13 371C2549.47 382 2551.63 394 2551.63 407C2551.63 420 2549.47 432 2545.13 443C2540.8 454 2534.55 463.584 2526.38 471.75C2518.38 479.917 2508.97 486.25 2498.13 490.75C2487.47 495.25 2475.63 497.5 2462.63 497.5ZM2462.63 462C2469.97 462 2476.72 460.667 2482.88 458C2489.22 455.334 2494.63 451.5 2499.13 446.5C2503.63 441.5 2507.13 435.667 2509.63 429C2512.3 422.334 2513.63 415 2513.63 407C2513.63 399 2512.3 391.667 2509.63 385C2507.13 378.334 2503.63 372.584 2499.13 367.75C2494.63 362.75 2489.22 358.917 2482.88 356.25C2476.72 353.417 2469.97 352 2462.63 352C2455.3 352 2448.55 353.417 2442.38 356.25C2436.22 358.917 2430.8 362.75 2426.13 367.75C2421.47 372.584 2417.88 378.334 2415.38 385C2413.05 391.667 2411.88 399 2411.88 407C2411.88 415 2413.05 422.334 2415.38 429C2417.88 435.667 2421.47 441.5 2426.13 446.5C2430.8 451.5 2436.22 455.334 2442.38 458C2448.55 460.667 2455.3 462 2462.63 462ZM2585.57 495V320H2663.07C2673.91 320 2683.74 322.5 2692.57 327.5C2701.41 332.334 2708.32 338.917 2713.32 347.25C2718.49 355.584 2721.07 365.084 2721.07 375.75C2721.07 386.25 2718.49 395.834 2713.32 404.5C2708.32 413 2701.41 419.75 2692.57 424.75C2683.74 429.75 2673.91 432.25 2663.07 432.25H2621.82V495H2585.57ZM2684.82 495L2640.32 416L2678.82 409.75L2728.32 495.25L2684.82 495ZM2621.82 401.75H2661.32C2665.82 401.75 2669.74 400.75 2673.07 398.75C2676.57 396.584 2679.24 393.667 2681.07 390C2682.91 386.167 2683.82 381.917 2683.82 377.25C2683.82 372.25 2682.74 367.917 2680.57 364.25C2678.41 360.584 2675.24 357.75 2671.07 355.75C2666.91 353.584 2662.07 352.5 2656.57 352.5H2621.82V401.75ZM2788.87 443.25L2780.87 409.25L2869.37 320H2914.87L2788.87 443.25ZM2760.62 495V320H2798.12V495H2760.62ZM2874.12 495L2808.62 408L2834.37 385.75L2918.62 495H2874.12ZM2999.26 497.5C2988.42 497.5 2978.51 496.167 2969.51 493.5C2960.67 490.834 2952.76 486.917 2945.76 481.75C2938.92 476.584 2932.76 470.334 2927.26 463L2950.76 436.25C2958.92 447.584 2967.01 455.334 2975.01 459.5C2983.17 463.5 2992.01 465.5 3001.51 465.5C3006.67 465.5 3011.26 464.834 3015.26 463.5C3019.42 462 3022.67 459.917 3025.01 457.25C3027.34 454.584 3028.51 451.417 3028.51 447.75C3028.51 445.084 3027.92 442.667 3026.76 440.5C3025.59 438.167 3023.92 436.167 3021.76 434.5C3019.59 432.667 3017.01 431.084 3014.01 429.75C3011.01 428.25 3007.67 427 3004.01 426C3000.34 424.834 2996.34 423.917 2992.01 423.25C2982.67 421.084 2974.51 418.5 2967.51 415.5C2960.51 412.334 2954.67 408.5 2950.01 404C2945.34 399.334 2941.84 394.084 2939.51 388.25C2937.34 382.417 2936.26 375.834 2936.26 368.5C2936.26 361 2937.92 354.084 2941.26 347.75C2944.59 341.25 2949.17 335.667 2955.01 331C2961.01 326.334 2967.84 322.75 2975.51 320.25C2983.34 317.75 2991.59 316.5 3000.26 316.5C3010.92 316.5 3020.26 317.75 3028.26 320.25C3036.26 322.584 3043.17 326 3049.01 330.5C3055.01 335 3060.01 340.5 3064.01 347L3040.26 370C3036.76 365.334 3032.92 361.417 3028.76 358.25C3024.76 355.084 3020.34 352.75 3015.51 351.25C3010.84 349.584 3006.01 348.75 3001.01 348.75C2995.51 348.75 2990.76 349.5 2986.76 351C2982.76 352.334 2979.59 354.334 2977.26 357C2975.09 359.667 2974.01 362.917 2974.01 366.75C2974.01 369.75 2974.76 372.417 2976.26 374.75C2977.76 377.084 2979.92 379.167 2982.76 381C2985.59 382.667 2989.01 384.167 2993.01 385.5C2997.01 386.834 3001.42 388 3006.26 389C3015.42 390.834 3023.67 393.25 3031.01 396.25C3038.34 399.25 3044.59 402.917 3049.76 407.25C3055.09 411.417 3059.17 416.417 3062.01 422.25C3064.84 427.917 3066.26 434.334 3066.26 441.5C3066.26 453.334 3063.42 463.417 3057.76 471.75C3052.09 480.084 3044.26 486.5 3034.26 491C3024.26 495.334 3012.59 497.5 2999.26 497.5Z" fill="white"/>
<path d="M1614.1 705V635H1661.4V648.2H1628.7V691.8H1662.1V705H1614.1ZM1621.1 675.7V662.9H1656.6V675.7H1621.1ZM1695.79 706C1691.19 706 1687.05 704.834 1683.39 702.5C1679.72 700.1 1676.82 696.867 1674.69 692.8C1672.62 688.667 1671.59 683.9 1671.59 678.5C1671.59 673.234 1672.62 668.534 1674.69 664.4C1676.82 660.267 1679.69 657 1683.29 654.6C1686.95 652.2 1691.12 651 1695.79 651C1698.25 651 1700.62 651.4 1702.89 652.2C1705.22 652.934 1707.29 653.967 1709.09 655.3C1710.95 656.634 1712.45 658.134 1713.59 659.8C1714.72 661.4 1715.35 663.1 1715.49 664.9L1711.89 665.5V631H1726.09V705H1712.69L1712.09 692.8L1714.89 693.1C1714.75 694.767 1714.15 696.367 1713.09 697.9C1712.02 699.434 1710.59 700.834 1708.79 702.1C1707.05 703.3 1705.05 704.267 1702.79 705C1700.59 705.667 1698.25 706 1695.79 706ZM1698.99 694.2C1701.65 694.2 1703.99 693.534 1705.99 692.2C1707.99 690.867 1709.55 689.034 1710.69 686.7C1711.82 684.367 1712.39 681.634 1712.39 678.5C1712.39 675.434 1711.82 672.734 1710.69 670.4C1709.55 668 1707.99 666.167 1705.99 664.9C1703.99 663.567 1701.65 662.9 1698.99 662.9C1696.32 662.9 1693.99 663.567 1691.99 664.9C1690.05 666.167 1688.52 668 1687.39 670.4C1686.32 672.734 1685.79 675.434 1685.79 678.5C1685.79 681.634 1686.32 684.367 1687.39 686.7C1688.52 689.034 1690.05 690.867 1691.99 692.2C1693.99 693.534 1696.32 694.2 1698.99 694.2ZM1759.69 706C1755.83 706 1752.49 705.167 1749.69 703.5C1746.96 701.767 1744.83 699.334 1743.29 696.2C1741.83 693 1741.09 689.167 1741.09 684.7V652.1H1755.29V682.4C1755.29 684.8 1755.69 686.9 1756.49 688.7C1757.29 690.434 1758.43 691.767 1759.89 692.7C1761.36 693.634 1763.16 694.1 1765.29 694.1C1766.83 694.1 1768.26 693.867 1769.59 693.4C1770.93 692.867 1772.06 692.134 1772.99 691.2C1773.93 690.267 1774.66 689.167 1775.19 687.9C1775.73 686.634 1775.99 685.267 1775.99 683.8V652.1H1790.19V705H1776.69L1776.19 694.1L1778.79 692.9C1777.99 695.367 1776.66 697.6 1774.79 699.6C1772.93 701.6 1770.69 703.167 1768.09 704.3C1765.49 705.434 1762.69 706 1759.69 706ZM1827.48 706C1822.42 706 1817.88 704.8 1813.88 702.4C1809.88 700 1806.72 696.734 1804.38 692.6C1802.12 688.467 1800.98 683.767 1800.98 678.5C1800.98 673.3 1802.12 668.634 1804.38 664.5C1806.72 660.3 1809.88 657 1813.88 654.6C1817.88 652.2 1822.42 651 1827.48 651C1832.22 651 1836.55 651.867 1840.48 653.6C1844.42 655.334 1847.48 657.734 1849.68 660.8L1841.88 670.2C1840.95 668.934 1839.78 667.8 1838.38 666.8C1836.98 665.734 1835.45 664.9 1833.78 664.3C1832.18 663.7 1830.52 663.4 1828.78 663.4C1826.05 663.4 1823.62 664.067 1821.48 665.4C1819.42 666.667 1817.78 668.434 1816.58 670.7C1815.38 672.967 1814.78 675.567 1814.78 678.5C1814.78 681.367 1815.38 683.934 1816.58 686.2C1817.85 688.4 1819.55 690.2 1821.68 691.6C1823.82 692.934 1826.22 693.6 1828.88 693.6C1830.62 693.6 1832.25 693.367 1833.78 692.9C1835.32 692.367 1836.75 691.6 1838.08 690.6C1839.48 689.6 1840.75 688.4 1841.88 687L1849.58 696.4C1847.32 699.267 1844.18 701.6 1840.18 703.4C1836.18 705.134 1831.95 706 1827.48 706ZM1878.48 706C1874.08 706 1870.12 704.8 1866.58 702.4C1863.05 700 1860.25 696.734 1858.18 692.6C1856.12 688.467 1855.08 683.734 1855.08 678.4C1855.08 673.067 1856.12 668.367 1858.18 664.3C1860.32 660.167 1863.18 656.934 1866.78 654.6C1870.38 652.2 1874.48 651 1879.08 651C1881.68 651 1884.05 651.4 1886.18 652.2C1888.38 652.934 1890.28 653.967 1891.88 655.3C1893.55 656.634 1894.95 658.167 1896.08 659.9C1897.22 661.634 1898.02 663.5 1898.48 665.5L1895.48 665V652.1H1909.58V705H1895.28V692.3L1898.48 692C1897.95 693.867 1897.08 695.634 1895.88 697.3C1894.68 698.967 1893.18 700.467 1891.38 701.8C1889.65 703.067 1887.68 704.1 1885.48 704.9C1883.28 705.634 1880.95 706 1878.48 706ZM1882.38 693.7C1885.05 693.7 1887.38 693.067 1889.38 691.8C1891.38 690.534 1892.92 688.767 1893.98 686.5C1895.12 684.167 1895.68 681.467 1895.68 678.4C1895.68 675.4 1895.12 672.767 1893.98 670.5C1892.92 668.234 1891.38 666.467 1889.38 665.2C1887.38 663.867 1885.05 663.2 1882.38 663.2C1879.78 663.2 1877.48 663.867 1875.48 665.2C1873.55 666.467 1872.02 668.234 1870.88 670.5C1869.75 672.767 1869.18 675.4 1869.18 678.4C1869.18 681.467 1869.75 684.167 1870.88 686.5C1872.02 688.767 1873.55 690.534 1875.48 691.8C1877.48 693.067 1879.78 693.7 1882.38 693.7ZM1928.92 705V638.7H1943.12V705H1928.92ZM1919.02 664.8V652.1H1953.92V664.8H1919.02ZM1987.79 706C1982.05 706 1977.05 704.834 1972.79 702.5C1968.52 700.167 1965.19 696.967 1962.79 692.9C1960.39 688.834 1959.19 684.167 1959.19 678.9C1959.19 674.834 1959.85 671.1 1961.19 667.7C1962.52 664.3 1964.39 661.367 1966.79 658.9C1969.19 656.367 1972.02 654.434 1975.29 653.1C1978.62 651.7 1982.22 651 1986.09 651C1989.69 651 1993.02 651.667 1996.09 653C1999.15 654.267 2001.79 656.1 2003.99 658.5C2006.25 660.834 2007.99 663.6 2009.19 666.8C2010.39 670 2010.92 673.5 2010.79 677.3L2010.69 681.7H1968.19L1965.89 673H1998.99L1997.39 674.8V672.6C1997.25 670.8 1996.65 669.167 1995.59 667.7C1994.59 666.234 1993.29 665.1 1991.69 664.3C1990.09 663.5 1988.29 663.1 1986.29 663.1C1983.35 663.1 1980.85 663.667 1978.79 664.8C1976.79 665.934 1975.25 667.6 1974.19 669.8C1973.12 672 1972.59 674.667 1972.59 677.8C1972.59 681 1973.25 683.767 1974.59 686.1C1975.99 688.434 1977.92 690.267 1980.39 691.6C1982.92 692.867 1985.89 693.5 1989.29 693.5C1991.62 693.5 1993.75 693.134 1995.69 692.4C1997.62 691.667 1999.69 690.4 2001.89 688.6L2008.69 698.1C2006.75 699.834 2004.62 701.3 2002.29 702.5C1999.95 703.634 1997.55 704.5 1995.09 705.1C1992.62 705.7 1990.19 706 1987.79 706Z" fill="white"/>
<path d="M2263.1 695V625H2310.4V638.2H2277.7V681.8H2311.1V695H2263.1ZM2270.1 665.7V652.9H2305.6V665.7H2270.1ZM2324.48 695V642.1H2338.18L2338.48 652.2L2336.38 652.6C2337.11 650.867 2338.08 649.3 2339.28 647.9C2340.48 646.5 2341.88 645.3 2343.48 644.3C2345.14 643.3 2346.88 642.534 2348.68 642C2350.48 641.4 2352.28 641.1 2354.08 641.1C2356.81 641.1 2359.28 641.534 2361.48 642.4C2363.68 643.267 2365.54 644.634 2367.08 646.5C2368.61 648.3 2369.81 650.7 2370.68 653.7L2368.48 653.5L2369.18 651.9C2370.04 650.3 2371.14 648.867 2372.48 647.6C2373.81 646.267 2375.31 645.134 2376.98 644.2C2378.64 643.2 2380.38 642.434 2382.18 641.9C2383.98 641.367 2385.74 641.1 2387.48 641.1C2391.61 641.1 2395.04 641.934 2397.78 643.6C2400.51 645.2 2402.54 647.634 2403.88 650.9C2405.28 654.167 2405.98 658.167 2405.98 662.9V695H2391.78V663.9C2391.78 661.5 2391.44 659.534 2390.78 658C2390.11 656.467 2389.14 655.334 2387.88 654.6C2386.61 653.8 2384.98 653.4 2382.98 653.4C2381.44 653.4 2380.01 653.667 2378.68 654.2C2377.41 654.667 2376.28 655.367 2375.28 656.3C2374.34 657.167 2373.61 658.2 2373.08 659.4C2372.54 660.6 2372.28 661.934 2372.28 663.4V695H2358.08V663.8C2358.08 661.6 2357.71 659.734 2356.98 658.2C2356.31 656.6 2355.34 655.4 2354.08 654.6C2352.81 653.8 2351.24 653.4 2349.38 653.4C2347.84 653.4 2346.41 653.667 2345.08 654.2C2343.81 654.667 2342.71 655.367 2341.78 656.3C2340.84 657.167 2340.08 658.2 2339.48 659.4C2338.94 660.6 2338.68 661.9 2338.68 663.3V695H2324.48ZM2419.5 717V642.1H2433.2L2433.6 654L2431 653.1C2431.47 650.967 2432.6 649 2434.4 647.2C2436.27 645.4 2438.57 643.934 2441.3 642.8C2444.03 641.667 2446.9 641.1 2449.9 641.1C2454.5 641.1 2458.57 642.3 2462.1 644.7C2465.7 647.034 2468.53 650.267 2470.6 654.4C2472.73 658.467 2473.8 663.167 2473.8 668.5C2473.8 673.767 2472.77 678.467 2470.7 682.6C2468.63 686.734 2465.8 690 2462.2 692.4C2458.6 694.734 2454.5 695.9 2449.9 695.9C2446.83 695.9 2443.9 695.334 2441.1 694.2C2438.37 693 2436.03 691.434 2434.1 689.5C2432.17 687.567 2430.97 685.5 2430.5 683.3L2433.8 681.9V717H2419.5ZM2446.7 683.7C2449.3 683.7 2451.6 683.067 2453.6 681.8C2455.6 680.534 2457.17 678.767 2458.3 676.5C2459.43 674.167 2460 671.5 2460 668.5C2460 665.5 2459.43 662.867 2458.3 660.6C2457.17 658.334 2455.6 656.567 2453.6 655.3C2451.67 654.034 2449.37 653.4 2446.7 653.4C2444.03 653.4 2441.7 654.034 2439.7 655.3C2437.7 656.5 2436.13 658.267 2435 660.6C2433.87 662.867 2433.3 665.5 2433.3 668.5C2433.3 671.5 2433.87 674.167 2435 676.5C2436.13 678.767 2437.7 680.534 2439.7 681.8C2441.7 683.067 2444.03 683.7 2446.7 683.7ZM2509.14 696C2503.74 696 2498.9 694.834 2494.64 692.5C2490.44 690.1 2487.1 686.834 2484.64 682.7C2482.24 678.567 2481.04 673.834 2481.04 668.5C2481.04 663.167 2482.24 658.467 2484.64 654.4C2487.1 650.267 2490.44 647 2494.64 644.6C2498.9 642.2 2503.74 641 2509.14 641C2514.47 641 2519.24 642.2 2523.44 644.6C2527.7 647 2531.04 650.267 2533.44 654.4C2535.84 658.467 2537.04 663.167 2537.04 668.5C2537.04 673.834 2535.84 678.567 2533.44 682.7C2531.04 686.834 2527.7 690.1 2523.44 692.5C2519.24 694.834 2514.47 696 2509.14 696ZM2509.14 683.6C2511.74 683.6 2514.07 682.967 2516.14 681.7C2518.2 680.367 2519.8 678.567 2520.94 676.3C2522.14 673.967 2522.74 671.367 2522.74 668.5C2522.74 665.567 2522.14 662.967 2520.94 660.7C2519.8 658.367 2518.2 656.567 2516.14 655.3C2514.07 653.967 2511.74 653.3 2509.14 653.3C2506.47 653.3 2504.1 653.967 2502.04 655.3C2499.97 656.634 2498.34 658.434 2497.14 660.7C2495.94 662.967 2495.37 665.567 2495.44 668.5C2495.37 671.367 2495.94 673.967 2497.14 676.3C2498.34 678.567 2499.97 680.367 2502.04 681.7C2504.1 682.967 2506.47 683.6 2509.14 683.6ZM2557.87 695L2540.17 642.1H2554.97L2565.77 678.1L2563.57 677.8L2575.47 649.7H2583.87L2596.27 677.9L2593.87 678.1L2604.67 642.1H2619.47L2601.47 695H2591.17L2578.67 664.9L2580.27 665.1L2568.07 695H2557.87ZM2651.73 696C2645.99 696 2640.99 694.834 2636.73 692.5C2632.46 690.167 2629.13 686.967 2626.73 682.9C2624.33 678.834 2623.13 674.167 2623.13 668.9C2623.13 664.834 2623.79 661.1 2625.13 657.7C2626.46 654.3 2628.33 651.367 2630.73 648.9C2633.13 646.367 2635.96 644.434 2639.23 643.1C2642.56 641.7 2646.16 641 2650.03 641C2653.63 641 2656.96 641.667 2660.03 643C2663.09 644.267 2665.73 646.1 2667.93 648.5C2670.19 650.834 2671.93 653.6 2673.13 656.8C2674.33 660 2674.86 663.5 2674.73 667.3L2674.63 671.7H2632.13L2629.83 663H2662.93L2661.33 664.8V662.6C2661.19 660.8 2660.59 659.167 2659.53 657.7C2658.53 656.234 2657.23 655.1 2655.63 654.3C2654.03 653.5 2652.23 653.1 2650.23 653.1C2647.29 653.1 2644.79 653.667 2642.73 654.8C2640.73 655.934 2639.19 657.6 2638.13 659.8C2637.06 662 2636.53 664.667 2636.53 667.8C2636.53 671 2637.19 673.767 2638.53 676.1C2639.93 678.434 2641.86 680.267 2644.33 681.6C2646.86 682.867 2649.83 683.5 2653.23 683.5C2655.56 683.5 2657.69 683.134 2659.63 682.4C2661.56 681.667 2663.63 680.4 2665.83 678.6L2672.63 688.1C2670.69 689.834 2668.56 691.3 2666.23 692.5C2663.89 693.634 2661.49 694.5 2659.03 695.1C2656.56 695.7 2654.13 696 2651.73 696ZM2685.22 695V642.1H2698.92L2699.42 659.1L2697.02 655.6C2697.82 652.867 2699.12 650.4 2700.92 648.2C2702.72 645.934 2704.82 644.167 2707.22 642.9C2709.69 641.634 2712.25 641 2714.92 641C2716.05 641 2717.15 641.1 2718.22 641.3C2719.29 641.5 2720.19 641.734 2720.92 642L2717.12 657.6C2716.32 657.2 2715.35 656.867 2714.22 656.6C2713.09 656.267 2711.92 656.1 2710.72 656.1C2709.12 656.1 2707.62 656.4 2706.22 657C2704.89 657.534 2703.72 658.334 2702.72 659.4C2701.72 660.4 2700.92 661.6 2700.32 663C2699.79 664.4 2699.52 665.934 2699.52 667.6V695H2685.22Z" fill="white"/>
<path d="M1010.1 705V635H1039.8C1043.93 635 1047.67 636 1051 638C1054.4 639.934 1057.07 642.6 1059 646C1061 649.4 1062 653.234 1062 657.5C1062 661.834 1061 665.734 1059 669.2C1057.07 672.667 1054.4 675.434 1051 677.5C1047.67 679.5 1043.93 680.5 1039.8 680.5H1025.1V705H1010.1ZM1024.9 667H1038.1C1039.7 667 1041.13 666.6 1042.4 665.8C1043.67 664.934 1044.67 663.8 1045.4 662.4C1046.2 661 1046.6 659.4 1046.6 657.6C1046.6 655.8 1046.2 654.234 1045.4 652.9C1044.67 651.5 1043.67 650.434 1042.4 649.7C1041.13 648.9 1039.7 648.5 1038.1 648.5H1024.9V667ZM1073.43 705V652.1H1087.13L1087.63 669.1L1085.23 665.6C1086.03 662.867 1087.33 660.4 1089.13 658.2C1090.93 655.934 1093.03 654.167 1095.43 652.9C1097.9 651.634 1100.47 651 1103.13 651C1104.27 651 1105.37 651.1 1106.43 651.3C1107.5 651.5 1108.4 651.734 1109.13 652L1105.33 667.6C1104.53 667.2 1103.57 666.867 1102.43 666.6C1101.3 666.267 1100.13 666.1 1098.93 666.1C1097.33 666.1 1095.83 666.4 1094.43 667C1093.1 667.534 1091.93 668.334 1090.93 669.4C1089.93 670.4 1089.13 671.6 1088.53 673C1088 674.4 1087.73 675.934 1087.73 677.6V705H1073.43ZM1139.63 706C1134.23 706 1129.4 704.834 1125.13 702.5C1120.93 700.1 1117.6 696.834 1115.13 692.7C1112.73 688.567 1111.53 683.834 1111.53 678.5C1111.53 673.167 1112.73 668.467 1115.13 664.4C1117.6 660.267 1120.93 657 1125.13 654.6C1129.4 652.2 1134.23 651 1139.63 651C1144.97 651 1149.73 652.2 1153.93 654.6C1158.2 657 1161.53 660.267 1163.93 664.4C1166.33 668.467 1167.53 673.167 1167.53 678.5C1167.53 683.834 1166.33 688.567 1163.93 692.7C1161.53 696.834 1158.2 700.1 1153.93 702.5C1149.73 704.834 1144.97 706 1139.63 706ZM1139.63 693.6C1142.23 693.6 1144.57 692.967 1146.63 691.7C1148.7 690.367 1150.3 688.567 1151.43 686.3C1152.63 683.967 1153.23 681.367 1153.23 678.5C1153.23 675.567 1152.63 672.967 1151.43 670.7C1150.3 668.367 1148.7 666.567 1146.63 665.3C1144.57 663.967 1142.23 663.3 1139.63 663.3C1136.97 663.3 1134.6 663.967 1132.53 665.3C1130.47 666.634 1128.83 668.434 1127.63 670.7C1126.43 672.967 1125.87 675.567 1125.93 678.5C1125.87 681.367 1126.43 683.967 1127.63 686.3C1128.83 688.567 1130.47 690.367 1132.53 691.7C1134.6 692.967 1136.97 693.6 1139.63 693.6ZM1183.32 705V638.7H1197.52V705H1183.32ZM1173.42 664.8V652.1H1208.32V664.8H1173.42ZM1242.18 706C1236.45 706 1231.45 704.834 1227.18 702.5C1222.92 700.167 1219.58 696.967 1217.18 692.9C1214.78 688.834 1213.58 684.167 1213.58 678.9C1213.58 674.834 1214.25 671.1 1215.58 667.7C1216.92 664.3 1218.78 661.367 1221.18 658.9C1223.58 656.367 1226.42 654.434 1229.68 653.1C1233.02 651.7 1236.62 651 1240.48 651C1244.08 651 1247.42 651.667 1250.48 653C1253.55 654.267 1256.18 656.1 1258.38 658.5C1260.65 660.834 1262.38 663.6 1263.58 666.8C1264.78 670 1265.32 673.5 1265.18 677.3L1265.08 681.7H1222.58L1220.28 673H1253.38L1251.78 674.8V672.6C1251.65 670.8 1251.05 669.167 1249.98 667.7C1248.98 666.234 1247.68 665.1 1246.08 664.3C1244.48 663.5 1242.68 663.1 1240.68 663.1C1237.75 663.1 1235.25 663.667 1233.18 664.8C1231.18 665.934 1229.65 667.6 1228.58 669.8C1227.52 672 1226.98 674.667 1226.98 677.8C1226.98 681 1227.65 683.767 1228.98 686.1C1230.38 688.434 1232.32 690.267 1234.78 691.6C1237.32 692.867 1240.28 693.5 1243.68 693.5C1246.02 693.5 1248.15 693.134 1250.08 692.4C1252.02 691.667 1254.08 690.4 1256.28 688.6L1263.08 698.1C1261.15 699.834 1259.02 701.3 1256.68 702.5C1254.35 703.634 1251.95 704.5 1249.48 705.1C1247.02 705.7 1244.58 706 1242.18 706ZM1298.68 706C1293.61 706 1289.08 704.8 1285.08 702.4C1281.08 700 1277.91 696.734 1275.58 692.6C1273.31 688.467 1272.18 683.767 1272.18 678.5C1272.18 673.3 1273.31 668.634 1275.58 664.5C1277.91 660.3 1281.08 657 1285.08 654.6C1289.08 652.2 1293.61 651 1298.68 651C1303.41 651 1307.74 651.867 1311.68 653.6C1315.61 655.334 1318.68 657.734 1320.88 660.8L1313.08 670.2C1312.14 668.934 1310.98 667.8 1309.58 666.8C1308.18 665.734 1306.64 664.9 1304.98 664.3C1303.38 663.7 1301.71 663.4 1299.98 663.4C1297.24 663.4 1294.81 664.067 1292.68 665.4C1290.61 666.667 1288.98 668.434 1287.78 670.7C1286.58 672.967 1285.98 675.567 1285.98 678.5C1285.98 681.367 1286.58 683.934 1287.78 686.2C1289.04 688.4 1290.74 690.2 1292.88 691.6C1295.01 692.934 1297.41 693.6 1300.08 693.6C1301.81 693.6 1303.44 693.367 1304.98 692.9C1306.51 692.367 1307.94 691.6 1309.28 690.6C1310.68 689.6 1311.94 688.4 1313.08 687L1320.78 696.4C1318.51 699.267 1315.38 701.6 1311.38 703.4C1307.38 705.134 1303.14 706 1298.68 706ZM1334.98 705V638.7H1349.18V705H1334.98ZM1325.08 664.8V652.1H1359.98V664.8H1325.08Z" fill="white"/>
<path d="M1482.8 714.3V621H1496.2V714.3H1482.8Z" fill="white"/>
<path d="M2131.8 714.3V621H2145.2V714.3H2131.8Z" fill="white"/>
</svg>
